<svg width="436" height="436" viewBox="0 0 436 436" fill="none" xmlns="http://www.w3.org/2000/svg">
<path fill-rule="evenodd" clip-rule="evenodd" d="M196.212 42.2914C200.008 40.2323 203.146 37.1128 205.227 33.3302L345.044 76.7059C344.522 78.3556 344.185 80.0876 344.058 81.8774L215.96 117.198C212.868 111.885 207.662 107.954 201.494 106.556L196.212 42.2914ZM187.553 107.849L182.37 44.784C178.493 44.2443 174.932 42.717 171.95 40.4643L41.4687 159.394C41.8879 160.049 42.274 160.728 42.6247 161.427L174.043 127.105C174.571 118.46 179.982 111.134 187.553 107.849ZM30.4881 150.459C28.0057 149.516 25.3132 149 22.5 149C10.0736 149 0 159.074 0 171.5C0 182.587 8.01832 191.8 18.5721 193.658L57.1898 334.001C53.354 338.036 51 343.493 51 349.5C51 361.926 61.0736 372 73.5 372C79.1687 372 84.3478 369.904 88.3043 366.444L246.392 417.703C248.36 428.12 257.51 436 268.5 436C280.926 436 291 425.926 291 413.5C291 410.439 290.389 407.52 289.281 404.86L402.164 299.94C405.493 301.885 409.366 303 413.5 303C425.926 303 436 292.926 436 280.5C436 268.281 426.26 258.337 414.121 258.008L381.67 100.117C386.174 96.0023 389 90.0811 389 83.5C389 71.0736 378.926 61 366.5 61C361.858 61 357.545 62.4056 353.962 64.8143L207.798 19.4696C206.318 8.47628 196.899 0 185.5 0C173.074 0 163 10.0736 163 22.5C163 24.7055 163.317 26.8369 163.909 28.851L30.4881 150.459ZM69.8642 327.292C71.0477 327.1 72.2622 327 73.5 327C75.6108 327 77.6537 327.291 79.5908 327.834L116.624 275.165C113.723 271.377 112 266.64 112 261.5C112 258.821 112.468 256.251 113.327 253.868L32.7437 191.538C32.6753 191.573 32.6066 191.608 32.5377 191.642L69.8642 327.292ZM91.2208 335.634L128.162 283.095C130.172 283.684 132.299 284 134.5 284C137.156 284 139.705 283.54 142.071 282.695L248.436 403.306C248.387 403.404 248.338 403.502 248.289 403.6L95.5354 354.071C95.84 352.595 96 351.066 96 349.5C96 344.269 94.215 339.455 91.2208 335.634ZM258.37 393.404L153.15 274.091C154.565 271.999 155.638 269.656 156.287 267.142L286.578 256.794C289.175 263.338 294.753 268.375 301.636 270.228L266.716 391.07C263.733 391.304 260.913 392.119 258.37 393.404ZM285.724 242.818L155.407 253.168C154.195 250.129 152.34 247.417 150.01 245.2L192.992 150.728C194.135 150.907 195.307 151 196.5 151C199.754 151 202.846 150.309 205.638 149.067L289.996 234.362C288.017 236.809 286.54 239.68 285.724 242.818ZM180.518 144.338L137.367 239.181C136.428 239.062 135.471 239 134.5 239C129.848 239 125.526 240.412 121.939 242.83L42.6576 181.507C43.6077 179.597 44.2942 177.533 44.6698 175.362L177.563 140.655C178.418 141.985 179.41 143.219 180.518 144.338ZM216.036 139.67L302.069 226.66C303.808 226.229 305.628 226 307.5 226C308.304 226 309.098 226.042 309.88 226.124L355.004 102.846C351.937 101.019 349.341 98.4843 347.443 95.4666L218.872 130.918C218.534 134.077 217.543 137.04 216.036 139.67ZM330 248.5C330 241.922 327.178 236.004 322.678 231.89L368.648 106.3L400.654 262.026C398.215 263.724 396.129 265.894 394.526 268.402L329.993 249.086C329.996 248.952 329.998 248.817 329.999 248.683C330 248.622 330 248.561 330 248.5ZM316.531 269.114C319.99 267.597 322.993 265.235 325.281 262.289L391.048 281.974C391.219 284.625 391.85 287.151 392.861 289.473L280.458 393.948L316.531 269.114ZM185.5 31C190.194 31 194 27.1944 194 22.5C194 17.8056 190.194 14 185.5 14C180.806 14 177 17.8056 177 22.5C177 27.1944 180.806 31 185.5 31ZM375 83.5C375 88.1944 371.194 92 366.5 92C361.806 92 358 88.1944 358 83.5C358 78.8056 361.806 75 366.5 75C371.194 75 375 78.8056 375 83.5ZM413.5 289C418.194 289 422 285.194 422 280.5C422 275.806 418.194 272 413.5 272C408.806 272 405 275.806 405 280.5C405 285.194 408.806 289 413.5 289ZM277 413.5C277 418.194 273.194 422 268.5 422C263.806 422 260 418.194 260 413.5C260 408.806 263.806 405 268.5 405C273.194 405 277 408.806 277 413.5ZM307.5 257C312.194 257 316 253.194 316 248.5C316 243.806 312.194 240 307.5 240C302.806 240 299 243.806 299 248.5C299 253.194 302.806 257 307.5 257ZM205 128.5C205 133.194 201.194 137 196.5 137C191.806 137 188 133.194 188 128.5C188 123.806 191.806 120 196.5 120C201.194 120 205 123.806 205 128.5ZM22.5 180C27.1944 180 31 176.194 31 171.5C31 166.806 27.1944 163 22.5 163C17.8056 163 14 166.806 14 171.5C14 176.194 17.8056 180 22.5 180ZM82 349.5C82 354.194 78.1944 358 73.5 358C68.8056 358 65 354.194 65 349.5C65 344.806 68.8056 341 73.5 341C78.1944 341 82 344.806 82 349.5ZM134.5 270C139.194 270 143 266.194 143 261.5C143 256.806 139.194 253 134.5 253C129.806 253 126 256.806 126 261.5C126 266.194 129.806 270 134.5 270Z" fill="white"/>
</svg>
