<svg width="536" height="536" viewBox="0 0 536 536" fill="none" xmlns="http://www.w3.org/2000/svg">
<rect width="536" height="536" rx="150" fill="#4358D8"/>
<path fill-rule="evenodd" clip-rule="evenodd" d="M246.212 92.2914C250.008 90.2323 253.146 87.1128 255.227 83.3302L395.044 126.706C394.522 128.356 394.185 130.088 394.058 131.877L265.96 167.198C262.868 161.885 257.662 157.954 251.494 156.556L246.212 92.2914ZM237.553 157.849L232.37 94.784C228.493 94.2443 224.932 92.717 221.95 90.4643L91.4687 209.394C91.8879 210.049 92.274 210.728 92.6247 211.427L224.043 177.105C224.571 168.46 229.982 161.134 237.553 157.849ZM80.4881 200.459C78.0057 199.516 75.3132 199 72.5 199C60.0736 199 50 209.074 50 221.5C50 232.587 58.0183 241.8 68.5721 243.658L107.19 384.001C103.354 388.036 101 393.493 101 399.5C101 411.926 111.074 422 123.5 422C129.169 422 134.348 419.904 138.304 416.444L296.392 467.703C298.36 478.12 307.51 486 318.5 486C330.926 486 341 475.926 341 463.5C341 460.439 340.389 457.52 339.281 454.86L452.164 349.94C455.493 351.885 459.366 353 463.5 353C475.926 353 486 342.926 486 330.5C486 318.281 476.26 308.337 464.121 308.008L431.67 150.117C436.174 146.002 439 140.081 439 133.5C439 121.074 428.926 111 416.5 111C411.858 111 407.545 112.406 403.962 114.814L257.798 69.4696C256.318 58.4763 246.899 50 235.5 50C223.074 50 213 60.0736 213 72.5C213 74.7055 213.317 76.8369 213.909 78.851L80.4881 200.459ZM119.864 377.292C121.048 377.1 122.262 377 123.5 377C125.611 377 127.654 377.291 129.591 377.834L166.624 325.165C163.723 321.377 162 316.64 162 311.5C162 308.821 162.468 306.251 163.327 303.868L82.7437 241.538C82.6753 241.573 82.6066 241.608 82.5377 241.642L119.864 377.292ZM141.221 385.634L178.162 333.095C180.172 333.684 182.299 334 184.5 334C187.156 334 189.705 333.54 192.071 332.695L298.436 453.306C298.387 453.404 298.338 453.502 298.289 453.6L145.535 404.071C145.84 402.595 146 401.066 146 399.5C146 394.269 144.215 389.455 141.221 385.634ZM308.37 443.404L203.15 324.091C204.565 321.999 205.638 319.656 206.287 317.142L336.578 306.794C339.175 313.338 344.753 318.375 351.636 320.228L316.716 441.07C313.733 441.304 310.913 442.119 308.37 443.404ZM335.724 292.818L205.407 303.168C204.195 300.129 202.34 297.417 200.01 295.2L242.992 200.728C244.135 200.907 245.307 201 246.5 201C249.754 201 252.846 200.309 255.638 199.067L339.996 284.362C338.017 286.809 336.54 289.68 335.724 292.818ZM230.518 194.338L187.367 289.181C186.428 289.062 185.471 289 184.5 289C179.848 289 175.526 290.412 171.939 292.83L92.6576 231.507C93.6077 229.597 94.2942 227.533 94.6698 225.362L227.563 190.655C228.418 191.985 229.41 193.219 230.518 194.338ZM266.036 189.67L352.069 276.66C353.808 276.229 355.628 276 357.5 276C358.304 276 359.098 276.042 359.88 276.124L405.004 152.846C401.937 151.019 399.341 148.484 397.443 145.467L268.872 180.918C268.534 184.077 267.543 187.04 266.036 189.67ZM380 298.5C380 291.922 377.178 286.004 372.678 281.89L418.648 156.3L450.654 312.026C448.215 313.724 446.129 315.894 444.526 318.402L379.993 299.086C379.996 298.952 379.998 298.817 379.999 298.683C380 298.622 380 298.561 380 298.5ZM366.531 319.114C369.99 317.597 372.993 315.235 375.281 312.289L441.048 331.974C441.219 334.625 441.85 337.151 442.861 339.473L330.458 443.948L366.531 319.114ZM235.5 81C240.194 81 244 77.1944 244 72.5C244 67.8056 240.194 64 235.5 64C230.806 64 227 67.8056 227 72.5C227 77.1944 230.806 81 235.5 81ZM425 133.5C425 138.194 421.194 142 416.5 142C411.806 142 408 138.194 408 133.5C408 128.806 411.806 125 416.5 125C421.194 125 425 128.806 425 133.5ZM463.5 339C468.194 339 472 335.194 472 330.5C472 325.806 468.194 322 463.5 322C458.806 322 455 325.806 455 330.5C455 335.194 458.806 339 463.5 339ZM327 463.5C327 468.194 323.194 472 318.5 472C313.806 472 310 468.194 310 463.5C310 458.806 313.806 455 318.5 455C323.194 455 327 458.806 327 463.5ZM357.5 307C362.194 307 366 303.194 366 298.5C366 293.806 362.194 290 357.5 290C352.806 290 349 293.806 349 298.5C349 303.194 352.806 307 357.5 307ZM255 178.5C255 183.194 251.194 187 246.5 187C241.806 187 238 183.194 238 178.5C238 173.806 241.806 170 246.5 170C251.194 170 255 173.806 255 178.5ZM72.5 230C77.1944 230 81 226.194 81 221.5C81 216.806 77.1944 213 72.5 213C67.8056 213 64 216.806 64 221.5C64 226.194 67.8056 230 72.5 230ZM132 399.5C132 404.194 128.194 408 123.5 408C118.806 408 115 404.194 115 399.5C115 394.806 118.806 391 123.5 391C128.194 391 132 394.806 132 399.5ZM184.5 320C189.194 320 193 316.194 193 311.5C193 306.806 189.194 303 184.5 303C179.806 303 176 306.806 176 311.5C176 316.194 179.806 320 184.5 320Z" fill="white"/>
</svg>
