<svg width="116" height="35" viewBox="0 0 116 35" fill="none" xmlns="http://www.w3.org/2000/svg">
<path fill-rule="evenodd" clip-rule="evenodd" d="M15.7115 3.39575C16.0165 3.23047 16.2683 2.97984 16.4353 2.67622L27.6265 6.15684C27.5844 6.28981 27.5573 6.42937 27.5471 6.57352L17.2947 9.40758C17.0468 8.98153 16.6297 8.66569 16.1343 8.55362L15.7115 3.39575ZM15.018 8.65705L14.603 3.59512C14.292 3.55192 14.0068 3.42948 13.7679 3.24902L3.32201 12.794C3.35583 12.8469 3.38698 12.9016 3.41527 12.958L13.9334 10.2041C13.9755 9.51068 14.4092 8.9209 15.018 8.65705ZM2.44168 12.0778C2.24291 12.0024 2.02724 11.961 1.80167 11.961C0.802421 11.961 -0.00280762 12.7723 -0.00280762 13.7672C-0.00280762 14.6552 0.638746 15.397 1.48718 15.5461L4.57895 26.8103C4.27015 27.1348 4.08094 27.5739 4.08094 28.0562C4.08094 29.0511 4.88617 29.8624 5.88542 29.8624C6.34053 29.8624 6.75539 29.6941 7.07226 29.4168L19.7266 33.5302C19.8839 34.3653 20.6159 35 21.4998 35C22.499 35 23.3042 34.1887 23.3042 33.1938C23.3042 32.9476 23.2549 32.7127 23.1656 32.4985L32.2021 24.0783C32.4686 24.2341 32.7788 24.3234 33.1104 24.3234C34.1097 24.3234 34.9149 23.5121 34.9149 22.5172C34.9149 21.5389 34.1362 20.738 33.1601 20.7117L30.562 8.03838C30.9245 7.70761 31.1515 7.23116 31.1515 6.70298C31.1515 5.70812 30.3462 4.89679 29.347 4.89679C28.9744 4.89679 28.6288 5.00958 28.3419 5.20262L16.642 1.56383C16.5238 0.682857 15.7704 0 14.8537 0C13.8544 0 13.0492 0.811327 13.0492 1.80619C13.0492 1.98381 13.0749 2.15558 13.1227 2.31792L2.44168 12.0778ZM5.59426 26.2734C5.68901 26.258 5.78626 26.25 5.88542 26.25C6.0546 26.25 6.21821 26.2733 6.37329 26.3167L9.33744 22.0904C9.10398 21.7857 8.96543 21.4046 8.96543 20.992C8.96543 20.7765 9.00321 20.5696 9.07254 20.3777L2.62253 15.3762L2.6056 15.3848L5.59426 26.2734ZM7.30541 26.9416L10.2622 22.7258C10.4232 22.7729 10.5935 22.7982 10.7699 22.7982C10.9829 22.7982 11.187 22.7613 11.3764 22.6937L19.8917 32.3737L19.8793 32.3984L7.65242 28.4239C7.677 28.3051 7.6899 28.1821 7.6899 28.0562C7.6899 27.6362 7.54641 27.249 7.30541 26.9416ZM20.6882 31.5801L12.2645 22.0042C12.3786 21.8357 12.465 21.647 12.5172 21.4447L22.9449 20.6144C23.1531 21.1393 23.6 21.5442 24.153 21.6929L21.357 31.3932C21.1177 31.4119 20.8918 31.4772 20.6882 31.5801ZM22.8762 19.4925L12.4464 20.3229C12.349 20.0787 12.1999 19.8605 12.0124 19.6822L15.4535 12.0998C15.545 12.1141 15.6389 12.1216 15.7345 12.1216C15.9954 12.1216 16.2431 12.0662 16.4666 11.9668L23.2199 18.8122C23.0605 19.0092 22.9418 19.2402 22.8762 19.4925ZM14.4541 11.5882L10.9995 19.2002C10.9244 19.1907 10.8477 19.1858 10.7699 19.1858C10.3967 19.1858 10.0506 19.299 9.76333 19.4926L3.41752 14.5719C3.49421 14.4179 3.54957 14.2514 3.57976 14.0765L14.2161 11.2916C14.285 11.3987 14.3649 11.4981 14.4541 11.5882ZM17.3003 11.2136L24.1876 18.195C24.3269 18.1605 24.4726 18.1422 24.6226 18.1422C24.687 18.1422 24.7506 18.1456 24.8132 18.1521L28.4262 8.25675C28.1798 8.11011 27.9714 7.90643 27.819 7.66414L17.5287 10.5087C17.5017 10.7629 17.4218 11.0017 17.3003 11.2136ZM26.4271 19.9484C26.4271 19.4206 26.2005 18.9444 25.8385 18.6137L29.519 8.53322L32.0816 21.0331C31.8855 21.1696 31.7179 21.3439 31.5892 21.5454L26.4265 19.9962C26.4269 19.9803 26.4271 19.9644 26.4271 19.9484ZM25.3456 21.6039C25.6235 21.4821 25.8646 21.2924 26.0482 21.0558L31.3097 22.6347C31.3234 22.8483 31.3743 23.0519 31.456 23.2392L22.4573 31.6242L25.3456 21.6039ZM14.8537 2.48853C15.2296 2.48853 15.5343 2.18304 15.5343 1.80619C15.5343 1.42935 15.2296 1.12385 14.8537 1.12385C14.4778 1.12385 14.173 1.42935 14.173 1.80619C14.173 2.18304 14.4778 2.48853 14.8537 2.48853ZM30.0276 6.70298C30.0276 7.07983 29.7229 7.38532 29.347 7.38532C28.9711 7.38532 28.6664 7.07983 28.6664 6.70298C28.6664 6.32614 28.9711 6.02064 29.347 6.02064C29.7229 6.02064 30.0276 6.32614 30.0276 6.70298ZM33.1104 23.1995C33.4863 23.1995 33.7911 22.894 33.7911 22.5172C33.7911 22.1404 33.4863 21.8349 33.1104 21.8349C32.7345 21.8349 32.4298 22.1404 32.4298 22.5172C32.4298 22.894 32.7345 23.1995 33.1104 23.1995ZM22.1804 33.1938C22.1804 33.5707 21.8757 33.8761 21.4998 33.8761C21.1239 33.8761 20.8191 33.5707 20.8191 33.1938C20.8191 32.817 21.1239 32.5115 21.4998 32.5115C21.8757 32.5115 22.1804 32.817 22.1804 33.1938ZM24.6226 20.6307C24.9985 20.6307 25.3033 20.3252 25.3033 19.9484C25.3033 19.5716 24.9985 19.2661 24.6226 19.2661C24.2467 19.2661 23.942 19.5716 23.942 19.9484C23.942 20.3252 24.2467 20.6307 24.6226 20.6307ZM16.4151 10.3154C16.4151 10.6922 16.1104 10.9977 15.7345 10.9977C15.3586 10.9977 15.0538 10.6922 15.0538 10.3154C15.0538 9.93852 15.3586 9.63303 15.7345 9.63303C16.1104 9.63303 16.4151 9.93852 16.4151 10.3154ZM1.80167 14.4495C2.17757 14.4495 2.4823 14.144 2.4823 13.7672C2.4823 13.3904 2.17757 13.0849 1.80167 13.0849C1.42577 13.0849 1.12105 13.3904 1.12105 13.7672C1.12105 14.144 1.42577 14.4495 1.80167 14.4495ZM6.56605 28.0562C6.56605 28.433 6.26132 28.7385 5.88542 28.7385C5.50952 28.7385 5.2048 28.433 5.2048 28.0562C5.2048 27.6793 5.50952 27.3739 5.88542 27.3739C6.26132 27.3739 6.56605 27.6793 6.56605 28.0562ZM10.7699 21.6743C11.1458 21.6743 11.4505 21.3688 11.4505 20.992C11.4505 20.6151 11.1458 20.3096 10.7699 20.3096C10.394 20.3096 10.0893 20.6151 10.0893 20.992C10.0893 21.3688 10.394 21.6743 10.7699 21.6743Z" fill="white"/>
<path d="M56.5522 11.6267L51.4246 24.8298H48.0196L42.892 11.6267H45.8964L49.7421 22.1248L53.5678 11.6267H56.5522Z" fill="white"/>
<path d="M64.7231 24.9622C63.4145 24.9622 62.2127 24.6721 61.1178 24.0921C60.0228 23.512 59.1548 22.7112 58.5139 21.6898C57.8729 20.6557 57.5525 19.4893 57.5525 18.1904C57.5525 16.9042 57.8729 15.7503 58.5139 14.7289C59.1548 13.6948 60.0228 12.8878 61.1178 12.3077C62.2127 11.7276 63.4145 11.4376 64.7231 11.4376C66.0451 11.4376 67.2468 11.7276 68.3285 12.3077C69.4234 12.8878 70.2847 13.6948 70.9123 14.7289C71.5532 15.7503 71.8737 16.9042 71.8737 18.1904C71.8737 19.4893 71.5532 20.6557 70.9123 21.6898C70.2847 22.7112 69.4234 23.512 68.3285 24.0921C67.2335 24.6721 66.0317 24.9622 64.7231 24.9622ZM64.7231 22.5977C65.5644 22.5977 66.3055 22.4212 66.9464 22.0681C67.5874 21.7024 68.0881 21.1854 68.4486 20.517C68.8092 19.8487 68.9894 19.0731 68.9894 18.1904C68.9894 17.3077 68.8092 16.5385 68.4486 15.8827C68.0881 15.2144 67.5874 14.7037 66.9464 14.3506C66.3055 13.9975 65.5644 13.8209 64.7231 13.8209C63.8819 13.8209 63.1341 13.9975 62.4798 14.3506C61.8388 14.7037 61.3381 15.2144 60.9775 15.8827C60.617 16.5385 60.4367 17.3077 60.4367 18.1904C60.4367 19.0731 60.617 19.8487 60.9775 20.517C61.3381 21.1854 61.8388 21.7024 62.4798 22.0681C63.1341 22.4212 63.8819 22.5977 64.7231 22.5977Z" fill="white"/>
<path d="M79.0475 16.5259H77.1046V24.8298H74.2604V16.5259H72.9985V14.3506H74.2604V13.8209C74.2604 12.5347 74.6476 11.5889 75.4221 10.9836C76.1966 10.3783 77.365 10.0946 78.9273 10.1324V12.3644C78.2463 12.3518 77.7723 12.459 77.5052 12.686C77.2381 12.913 77.1046 13.3228 77.1046 13.9155V14.3506H79.0475V16.5259Z" fill="white"/>
<path d="M85.9523 16.5259H84.0094V24.8298H81.1652V16.5259H79.9033V14.3506H81.1652V13.8209C81.1652 12.5347 81.5524 11.5889 82.3269 10.9836C83.1014 10.3783 84.2698 10.0946 85.8321 10.1324V12.3644C85.1511 12.3518 84.677 12.459 84.41 12.686C84.1429 12.913 84.0094 13.3228 84.0094 13.9155V14.3506H85.9523V16.5259Z" fill="white"/>
<path d="M89.1916 13.1021C88.6975 13.1021 88.2836 12.9571 87.9497 12.6671C87.6293 12.3644 87.469 11.9924 87.469 11.5511C87.469 11.1097 87.6293 10.744 87.9497 10.454C88.2836 10.1513 88.6975 10 89.1916 10C89.6857 10 90.0929 10.1513 90.4134 10.454C90.7472 10.744 90.9141 11.1097 90.9141 11.5511C90.9141 11.9924 90.7472 12.3644 90.4134 12.6671C90.0929 12.9571 89.6857 13.1021 89.1916 13.1021ZM90.5736 14.3506V24.8298H87.7695V14.3506H90.5736Z" fill="white"/>
<path d="M92.6231 19.5902C92.6231 18.5057 92.8568 17.5599 93.3241 16.7528C93.7915 15.9332 94.4391 15.3026 95.267 14.8613C96.0949 14.4073 97.043 14.1803 98.1112 14.1803C99.4866 14.1803 100.622 14.5082 101.516 15.1639C102.424 15.8071 103.032 16.715 103.339 17.8878H100.314C100.154 17.4338 99.8805 17.0807 99.4933 16.8285C99.1194 16.5637 98.652 16.4313 98.0912 16.4313C97.29 16.4313 96.6557 16.7087 96.1884 17.2636C95.721 17.8058 95.4873 18.5813 95.4873 19.5902C95.4873 20.5864 95.721 21.3619 96.1884 21.9168C96.6557 22.459 97.29 22.7301 98.0912 22.7301C99.2262 22.7301 99.9673 22.2509 100.314 21.2926H103.339C103.032 22.4275 102.424 23.3291 101.516 23.9975C100.608 24.6658 99.4733 25 98.1112 25C97.043 25 96.0949 24.7793 95.267 24.338C94.4391 23.884 93.7915 23.2535 93.3241 22.4464C92.8568 21.6267 92.6231 20.6747 92.6231 19.5902Z" fill="white"/>
<path d="M115.709 19.3632C115.709 19.7415 115.682 20.082 115.628 20.3846H107.516C107.583 21.1412 107.864 21.7339 108.358 22.1627C108.852 22.5914 109.459 22.8058 110.18 22.8058C111.222 22.8058 111.963 22.3834 112.404 21.5385H115.428C115.108 22.5473 114.493 23.3796 113.585 24.0353C112.677 24.6784 111.562 25 110.24 25C109.172 25 108.211 24.7793 107.356 24.338C106.515 23.884 105.854 23.2472 105.373 22.4275C104.906 21.6078 104.672 20.662 104.672 19.5902C104.672 18.5057 104.906 17.5536 105.373 16.7339C105.841 15.9142 106.495 15.2837 107.336 14.8424C108.177 14.401 109.146 14.1803 110.24 14.1803C111.295 14.1803 112.237 14.3947 113.065 14.8235C113.906 15.2522 114.554 15.8638 115.008 16.6583C115.475 17.4401 115.709 18.3417 115.709 19.3632ZM112.804 18.6066C112.791 17.9256 112.531 17.3834 112.023 16.9798C111.516 16.5637 110.895 16.3556 110.16 16.3556C109.466 16.3556 108.878 16.5574 108.398 16.9609C107.93 17.3518 107.643 17.9004 107.536 18.6066H112.804Z" fill="white"/>
</svg>
